# xmcd
#
# Track frame offsets: 
#        150
#        14161
#        27477
#        40558
#        50383
#        65943
#        83207
#        93241
#        118851
#        133801
#        150202
#        189019
#        205438
#        215870
#        244742
#        277174
#        292291
#
# Disc length: 4191 seconds
#
# Revision: 3
# Processed by: cddbd v1.5.2PL0 Copyright (c) Steve Scherf et al.
# Submitted via: ExactAudioCopyFreeDBPlugin 1.0
#
DISCID=08105d11
DTITLE=Creedence Clearwater Revival - Collected - CD3-3
DYEAR=2008
DGENRE=Rock
TTITLE0=Run through the jungle  (1970)
TTITLE1=Cotton fields  (1969)
TTITLE2=It came out of the sky  (1969)
TTITLE3=Don't look now  (1969)
TTITLE4=Before you accuse me  (1970)
TTITLE5=Gloomy  (1968)
TTITLE6=Hello Mary Lou  (1972)
TTITLE7=Born to move  (1970)
TTITLE8=Chameleon  (1970)
TTITLE9=Tombstone shadow  (1969)
TTITLE10=Graveyard train  (1969)
TTITLE11=Penthouse pauper  (1969)
TTITLE12=My baby left me  (1970)
TTITLE13=Pagan baby  (1970)
TTITLE14=Ramble tamble  (1970)
TTITLE15=Sinster purpose  (1969)
TTITLE16=Wrote a song for everyone  (1969)
EXTD=
EXTT0=
EXTT1=
EXTT2=
EXTT3=
EXTT4=
EXTT5=
EXTT6=
EXTT7=
EXTT8=
EXTT9=
EXTT10=
EXTT11=
EXTT12=
EXTT13=
EXTT14=
EXTT15=
EXTT16=
PLAYORDER=
